<?xml version="1.0" standalone="no"?><!DOCTYPE svg PUBLIC "-//W3C//DTD SVG 1.1//EN" "http://www.w3.org/Graphics/SVG/1.1/DTD/svg11.dtd"><svg t="1711791368997" class="icon" viewBox="0 0 1080 1024" version="1.1" xmlns="http://www.w3.org/2000/svg" p-id="14318" xmlns:xlink="http://www.w3.org/1999/xlink" width="210.9375" height="200"><path d="M910.222222 620.088889h-73.955555v147.911111h-147.911111v73.955556h147.911111v147.911111H910.222222v-147.911111h147.911111v-73.955556H910.222222v-147.911111z m0-438.044445h-147.911111c0-79.644444-68.266667-147.911111-147.911111-147.911111H176.355556C96.711111 34.133333 28.444444 96.711111 28.444444 182.044444v654.222223c0 79.644444 68.266667 147.911111 147.911112 147.911111h438.044444V910.222222H176.355556c-39.822222 0-73.955556-34.133333-73.955556-73.955555V182.044444c0-39.822222 34.133333-68.266667 73.955556-68.266666h438.044444c39.822222 0 73.955556 34.133333 73.955556 73.955555v73.955556H910.222222c39.822222 0 73.955556 34.133333 73.955556 73.955555v216.177778h73.955555V329.955556c-5.688889-79.644444-68.266667-147.911111-147.911111-147.911112z" fill="#020202" p-id="14319"></path></svg>