<?xml version="1.0" standalone="no"?><!DOCTYPE svg PUBLIC "-//W3C//DTD SVG 1.1//EN" "http://www.w3.org/Graphics/SVG/1.1/DTD/svg11.dtd"><svg t="1711702685802" class="icon" viewBox="0 0 1024 1024" version="1.1" xmlns="http://www.w3.org/2000/svg" p-id="14590" xmlns:xlink="http://www.w3.org/1999/xlink" width="200" height="200"><path d="M644.748102 943.104h213.271273c33.605818 0 60.974545-27.368727 60.974545-60.974545V319.394909c0-33.605818-27.368727-60.974545-60.974545-60.974545H134.470284c-33.605818 0-60.928 27.368727-60.928 60.974545v562.734546c0 33.605818 27.322182 60.974545 60.974545 60.974545h510.231273z m213.271273 73.122909H134.470284a134.237091 134.237091 0 0 1-134.050909-134.050909V319.348364A134.237091 134.237091 0 0 1 134.470284 185.250909h723.549091a134.237091 134.237091 0 0 1 134.050909 134.050909v562.781091a134.237091 134.237091 0 0 1-134.050909 134.097455z" fill="#00B5E2" p-id="14591"></path><path d="M204.009193 846.568727c-20.107636 0-36.538182-15.546182-36.538182-34.443636 0-18.990545 16.430545-34.443636 36.538182-34.443636H314.647738c20.107636 0 36.584727 15.453091 36.584727 34.443636 0 18.897455-16.477091 34.443636-36.584727 34.443636H204.009193z" fill="#000222" p-id="14592"></path><path d="M204.009193 846.568727c-20.107636 0-36.538182-15.546182-36.538182-34.443636 0-18.990545 16.430545-34.443636 36.538182-34.443636H314.647738c20.107636 0 36.584727 15.453091 36.584727 34.443636 0 18.897455-16.477091 34.443636-36.584727 34.443636H204.009193zM208.803375 670.580364c-20.154182 0-36.584727-15.499636-36.584728-34.443637s16.430545-34.443636 36.584728-34.443636h264.936727c20.107636 0 36.584727 15.499636 36.584727 34.443636s-16.477091 34.443636-36.584727 34.443637H208.803375zM36.864465 433.058909a36.584727 36.584727 0 0 1-36.584727-36.538182L0.000465 134.144A132.887273 132.887273 0 0 1 39.284829 39.377455 132.980364 132.980364 0 0 1 133.958284 0h352.349091c39.330909 0 76.427636 14.661818 101.794909 40.215273 20.712727 20.805818 31.976727 47.476364 31.744 74.938182l-0.558546 78.289454a36.584727 36.584727 0 0 1-36.538182 36.305455h-0.279272a36.584727 36.584727 0 0 1-36.305455-36.770909l0.558546-78.382546c0.093091-10.053818-5.678545-17.966545-10.519273-22.807273-11.589818-11.636364-30.208-18.618182-49.850182-18.618181h-352.349091c-16.197818 0-31.464727 6.376727-43.008 17.92a60.369455 60.369455 0 0 0-17.826909 42.961454l0.232727 262.423273a36.584727 36.584727 0 0 1-36.538182 36.584727z" fill="#00B5E2" p-id="14593"></path><path d="M840.14592 1015.528727H551.703738A137.216 137.216 0 0 1 414.487738 878.312727V551.749818A137.216 137.216 0 0 1 551.703738 414.487273h288.442182a137.216 137.216 0 0 1 137.216 137.262545v326.562909a137.216 137.216 0 0 1-137.216 137.216" fill="#00B5E2" opacity=".395" p-id="14594"></path></svg>