<?xml version="1.0" standalone="no"?><!DOCTYPE svg PUBLIC "-//W3C//DTD SVG 1.1//EN" "http://www.w3.org/Graphics/SVG/1.1/DTD/svg11.dtd"><svg t="1711270070554" class="icon" viewBox="0 0 1024 1024" version="1.1" xmlns="http://www.w3.org/2000/svg" p-id="15807" xmlns:xlink="http://www.w3.org/1999/xlink" width="200" height="200"><path d="M631.2 178.6V208h168.3v-29.3c0-10.1 25.4-22.3 25.4-38.7v-33.4c0-5.2-4.3-9.5-9.5-9.5H615.3c-5.2 0-9.5 4.3-9.5 9.5V140c0 20.7 25.4 27.1 25.4 38.6zM224.5 178.7V208h168.3v-29.4c0-11.5 25.4-17.9 25.4-38.6v-33.4c0-5.2-4.3-9.5-9.5-9.5H208.6c-5.2 0-9.5 4.3-9.5 9.5V140c0 16.4 25.4 28.6 25.4 38.7zM959.9 771.2l-4.2-47.1H597.9V695h355.4l-31.8-361.8c-1.2-15.2-14.6-27.6-29.8-27.6h-11.5l-1.5-5.9c-1-13.2-12.7-23.9-25.9-23.9h-53v-38.5H631.2v40.4c-28.3 6.9-33.4 31-33.4 51.6v55.5h-25.4v-18.7c0-7.6-6.2-13.8-13.8-13.8h-92.2c-7.6 0-13.8 6.2-13.8 13.8v18.7h-26.4v-55.5c0-20.6-5.1-44.8-33.4-51.6v-40.4H224.4v38.5h-53c-13.2 0-24.8 10.8-25.9 23.9l-1.5 5.9h-11.5c-15.2 0-28.6 12.4-29.8 27.6L70.9 695.1h355.4v29.2h-358l-4.2 47.1C62.9 786.6 74.4 799 89.6 799h39v16.8c0 14.7-50.7 32.4-50.7 56V913c0 7.6 6.2 13.8 13.8 13.8h306.8c7.6 0 13.8-6.2 13.8-13.8v-41.5c0-30.1-37-39.2-37-56v-16.8h23.1c15.2 0 27.7-12.5 27.7-27.7v-41h26.4v0.5c0 7.6 6.2 13.8 13.8 13.8h92.2c7.6 0 13.8-6.2 13.8-13.8v-0.5h25.4v41c0 15.2 12.5 27.7 27.7 27.7h23.1v16.8c0 16.8-37 25.9-37 56V913c0 7.6 6.2 13.8 13.8 13.8H932c7.6 0 13.8-6.2 13.8-13.8v-41.5c0-23.5-50.7-41.4-50.7-56v-16.8h39.3v0.1c15.2 0 26.7-12.4 25.5-27.6z m-507.4-77.4h-26.4V421.3h26.4v272.5z m145.3 0h-25.4V421.3h25.4v272.5z" p-id="15808"></path></svg>