<?xml version="1.0" standalone="no"?><!DOCTYPE svg PUBLIC "-//W3C//DTD SVG 1.1//EN" "http://www.w3.org/Graphics/SVG/1.1/DTD/svg11.dtd"><svg t="1711805179615" class="icon" viewBox="0 0 1024 1024" version="1.1" xmlns="http://www.w3.org/2000/svg" p-id="2298" xmlns:xlink="http://www.w3.org/1999/xlink" width="200" height="200"><path d="M927.9 727.2c-9.6-0.3-18.8 3.3-25.7 10-6.9 6.6-10.8 15.7-11 25.3-1 44.3-37.7 79.4-82 78.6H214.4c-44.3 0.8-80.9-34.3-82-78.6V250.6c1-44.3 37.7-79.4 82-78.6H435l58.6 97.7c16.9 27.5 46.9 44.1 79.1 43.8H811c44.6-0.8 81.4 34.6 82.5 79.1 0 20.3 16.4 36.7 36.7 36.7 20.3 0 36.7-16.4 36.7-36.7-1.2-40.7-18.6-79.2-48.3-107-29.7-27.8-69.2-42.7-109.9-41.2H570.4c-6.3-0.1-12.2-3.3-15.7-8.6l-58.1-102.5c-11.3-20.3-33-32.6-56.2-31.9h-226C130.3 99.8 60.8 166.5 59 250.6v511.9c1.8 84.1 71.3 150.8 155.4 149.2h594.8c84.1 1.6 153.6-65.1 155.4-149.2-0.6-19.9-16.9-35.6-36.7-35.3z m0 0" fill="#535353" p-id="2299"></path><path d="M920.9 473.7c-9.4-0.3-18.5 3.3-25.3 9.8-6.8 6.5-10.7 15.5-10.8 24.9V649c0 19.9 16.2 36.1 36.1 36.1 19.9 0 36.1-16.2 36.1-36.1V508.4c-0.5-19.5-16.6-35-36.1-34.7zM596.2 693.5c6.7 6.7 15.8 10.4 25.3 10.3 9.6 0.1 18.9-3.6 25.8-10.3l122.3-116.7c3.5-3 6.1-6.9 7.5-11.2 1.3-3.1 2.1-6.5 2.3-9.8 1.4-5.5 1.4-11.3 0-16.9-2.2-5.2-5.6-9.9-9.8-13.6l-122.3-119c-14.3-13.6-36.8-13.6-51.1 0-12.4 13.2-12.4 33.7 0 46.9l62.8 60H278c-19.2 0-34.7 15.5-34.7 34.7 0 19.2 15.5 34.7 34.7 34.7h381l-62.8 62.3c-6.8 6.3-10.6 15.1-10.6 24.4-0.1 9.1 3.8 17.9 10.6 24.2z m0 0" fill="#535353" p-id="2300"></path></svg>