<?xml version="1.0" standalone="no"?><!DOCTYPE svg PUBLIC "-//W3C//DTD SVG 1.1//EN" "http://www.w3.org/Graphics/SVG/1.1/DTD/svg11.dtd"><svg t="1711270310205" class="icon" viewBox="0 0 1024 1024" version="1.1" xmlns="http://www.w3.org/2000/svg" p-id="15967" xmlns:xlink="http://www.w3.org/1999/xlink" width="200" height="200"><path d="M711.992008 94.625375c-6.137862 0-11.252747 2.045954-14.833167 6.137862-3.58042 4.091908-5.626374 10.22977-5.626373 18.413586V282.341658c0 8.695305 2.045954 14.833167 6.137862 18.925075 4.091908 4.091908 8.695305 6.649351 14.833167 6.649351s11.252747-2.045954 15.344655-6.137862c3.58042-4.091908 5.626374-10.22977 6.137862-18.925075V120.1998c0-8.695305-2.045954-14.833167-6.137862-18.925075-4.603397-4.603397-9.718282-6.649351-15.856144-6.64935zM476.707293 266.997003l-54.217783-132.987013c-2.557443-6.649351-4.603397-11.764236-6.137862-15.856144-1.534466-4.091908-3.58042-7.672328-6.137862-11.252747-2.557443-3.58042-5.626374-6.137862-9.206793-8.695305-4.091908-2.045954-8.695305-3.58042-14.833167-3.580419-5.626374 0-10.741259 1.022977-14.321678 3.580419-4.091908 2.045954-7.160839 5.114885-9.206793 8.695305-2.557443 3.58042-4.603397 8.183816-6.649351 13.298701s-3.58042 9.718282-5.114885 13.298701v0.511489L296.663337 268.531469c-2.045954 5.114885-3.58042 9.718282-4.603397 12.787212-1.022977 3.068931-1.534466 6.137862-1.534465 8.695305 0 5.114885 2.045954 9.206793 6.137862 13.298701 4.091908 4.091908 8.695305 5.626374 13.810189 5.626374 6.137862 0 10.741259-1.534466 13.298702-5.626374 2.557443-3.58042 6.137862-10.22977 9.718281-20.45954v-0.511489L343.208791 255.744256h84.395605l9.718281 26.085914c1.534466 3.58042 3.068931 7.160839 4.603397 11.252747 2.045954 4.091908 3.58042 7.160839 5.114885 9.206793 1.534466 2.045954 3.58042 3.58042 6.137862 4.603397 2.557443 1.022977 5.114885 1.534466 8.695305 1.534465 5.626374 0 10.22977-2.045954 14.321678-6.137862 4.091908-4.091908 6.137862-8.183816 6.137862-13.298701 0-4.603397-2.045954-11.764236-6.137862-21.482517l0.511489-0.511489z m-121.734266-42.965035l30.689311-85.418581 31.200799 85.418581H354.973027zM639.360639 113.55045c-6.137862-5.626374-13.298701-9.206793-21.994006-11.764236-8.695305-2.557443-20.971029-3.58042-36.827172-3.58042h-46.033966c-9.206793 0-15.856144 2.045954-20.459541 6.137862-4.091908 4.091908-6.137862 10.741259-6.137862 19.436564v159.072927c0 8.183816 2.045954 14.321678 5.626374 18.925075 4.091908 4.091908 8.695305 6.649351 15.344655 6.64935s11.252747-2.045954 14.833167-6.64935c4.091908-4.091908 6.137862-10.741259 6.137862-18.925075V224.543457h30.689311c25.574426 0 45.010989-5.626374 58.30969-16.367633 12.787213-10.741259 19.436563-26.597403 19.436563-48.07992 0-9.718282-1.534466-18.925075-4.603396-26.597403-3.58042-7.672328-8.183816-14.321678-14.321679-19.948051z m-20.971029 65.982018c-3.58042 4.603397-8.695305 8.183816-15.344655 10.22977-6.649351 2.045954-14.833167 3.068931-24.551449 3.068931h-28.131868V129.918082h28.131868c18.925075 0 31.200799 3.068931 37.338662 9.206793 5.114885 5.626374 8.183816 13.298701 8.183816 21.994006-0.511489 7.672328-2.557443 13.81019-5.626374 18.413587z" fill="#00AA64" p-id="15968"></path><path d="M884.875125 408.167832c53.194805 0 96.671329-43.988012 96.671329-98.205794V98.205794c0-54.217782-43.476523-98.205794-96.671329-98.205794H139.124875C85.93007 0 42.453546 43.988012 42.453546 98.205794v212.267732c0 54.217782 43.476523 98.205794 96.671329 98.205795h217.382618v127.872128c0 30.689311-18.413586 58.30969-46.033967 71.096903l-8.183816 3.580419-2.557442-8.695304c-17.902098-56.263736-68.027972-93.602398-125.826174-93.602398-72.631369 0-131.452547 59.844156-131.452548 133.498501s58.821179 133.498501 131.452548 133.498502c61.89011 0 115.596404-44.4995 128.383616-105.366633l1.022977-5.114886 5.114885-1.022977c60.355644-14.321678 102.297702-66.493506 102.297703-127.872127v-127.872128h84.907093v350.881119l-6.137863 1.534465c-58.30969 15.344655-98.717283 68.027972-98.717282 129.406594 0 73.654346 58.821179 133.498501 131.452547 133.498501s131.452547-59.844156 131.452548-133.498501c0-60.867133-40.407592-114.061938-98.717283-129.406594l-6.137862-1.534465V408.167832h98.205794v127.872128c0 47.568432 26.085914 91.044955 67.516484 114.061938l3.580419 2.045954 0.511489 4.091908c7.160839 68.027972 63.424575 119.176823 130.941059 119.176823 72.631369 0 131.452547-59.844156 131.452547-133.498501S922.213786 508.41958 849.582418 508.41958c-50.125874 0-95.136863 28.131868-117.642358 73.654346l-5.626374 11.252747-7.672327-10.22977c-10.741259-13.81019-16.367632-30.177822-16.367633-47.568431v-127.872128l182.601399 0.511488z m-710.969031 312.519481c-42.965035 0-77.746254-35.292707-77.746254-78.769231s34.781219-78.769231 77.746254-78.769231 77.746254 35.292707 77.746254 78.769231-34.781219 78.769231-77.746254 78.769231z m676.187812-157.026973c42.965035 0 77.746254 35.292707 77.746254 78.76923s-34.781219 78.769231-77.746254 78.769231c-38.361638 0-70.585415-27.62038-76.723277-65.982018v-24.03996c5.626374-39.384615 38.361638-67.516484 76.723277-67.516483z m-249.606394 325.818181c0 43.476523-34.781219 78.769231-77.746253 78.769231s-77.746254-35.292707-77.746254-78.769231 34.781219-78.769231 77.746254-78.76923 77.746254 35.292707 77.746253 78.76923zM139.124875 353.438561c-23.528472 0-42.965035-19.436563-42.965035-43.476523V98.205794c0-24.03996 19.436563-43.476523 42.965035-43.476523h745.75025c23.528472 0 42.965035 19.436563 42.965035 43.476523v212.267732c0 24.03996-19.436563 43.476523-42.965035 43.476524H139.124875z" fill="#00AA64" p-id="15969"></path></svg>